<?xml version="1.0" encoding="utf-8"?>
<!-- Generator: Adobe Illustrator 25.4.0, SVG Export Plug-In . SVG Version: 6.00 Build 0)  -->
<svg version="1.1" id="Layer_1" xmlns="http://www.w3.org/2000/svg" x="0px" y="0px"
	 viewBox="0 0 850.2 777.1" style="enable-background:new 0 0 850.2 777.1;" xml:space="preserve">
<style type="text/css">
	.st0{fill:none;stroke:#231F20;stroke-width:16;stroke-linecap:round;stroke-linejoin:round;}
	.st1{fill:url(#SVGID_1_);}
	.st2{fill:none;stroke:#F7941D;stroke-width:8;stroke-linecap:round;stroke-linejoin:round;}
	.st3{fill:none;stroke:#F7941D;stroke-width:8;stroke-miterlimit:10;}
	.st4{fill:none;stroke:#1C75BC;stroke-width:8;stroke-linecap:round;stroke-linejoin:round;}
</style>
	<g>
	<g>
		<line class="st0" x1="179" y1="483.7" x2="179" y2="316.8"/>
	</g>
</g>
	<g>
	<g>
		<line class="st0" x1="492.1" y1="626.4" x2="388.1" y2="626.4"/>
	</g>
</g>
	<g>
	<g>
		
			<radialGradient id="SVGID_1_" cx="183.7" cy="654.1707" r="164.5566" fx="198.5278" fy="490.2836"
							gradientTransform="matrix(1 0 0 1 0 -20)" gradientUnits="userSpaceOnUse">
			<stop offset="0" style="stop-color:#4A1318"/>
				<stop offset="0.3169" style="stop-color:#BE2227"/>
				<stop offset="0.632" style="stop-color:#010101"/>
				<stop offset="1" style="stop-color:#B62126"/>
		</radialGradient>
		<path class="st1" d="M359.6,650.8L359.6,650.8c-3.7-2-8.4-0.8-10.5,2.9c-12.2,21.3-38.9,29.5-61.1,19.6
			c-0.3-7.8-2.2-15.4-5.6-22.4c20.5-9.7,34.6-29.2,37.2-51.7c27-3.5,47.8-26.3,47.8-53.7c0-29.9-24.8-54.2-55.1-54.2
			c-4.2,0-7.7,3.4-7.7,7.6v39H265c-4.2,0-7.7,3.4-7.7,7.6c0,27.1,20.4,49.6,46.9,53.5c-2.6,17.2-13.8,31.8-29.8,38.8
			c-5.1-6.4-11.1-12.1-17.8-16.8c-12.3-8.6-26.2-14.7-40.9-17.9l8.7-22.6c3,0,5.9-0.6,8.6-1.8c5.1-2.2,9.2-6.4,11.2-11.6
			c4.1-10.7-1.2-22.7-11.9-26.9c-0.2-0.1-0.3-0.1-0.5-0.2c-5.3-2-11.1-1.8-16.3,0.4c-5.1,2.2-9.2,6.4-11.2,11.6
			c-2,5.2-1.9,11,0.4,16.1c1.2,2.6,3,5,5.1,6.9l-9.8,25.2c0,0.1-0.1,0.1-0.1,0.2c-5.5-0.6-11-1-16.5-0.9c-5.7,0-11.4,0.3-17,1
			l-9.3-23.8c2.2-1.9,4-4.3,5.1-6.9c2.3-5.1,2.5-10.9,0.4-16.1c-2-5.2-6.1-9.4-11.2-11.6c-5.2-2.3-11-2.5-16.3-0.4
			c-10.8,4-16.4,15.9-12.5,26.8c0,0.1,0.1,0.2,0.1,0.3c3.2,8.1,11,13.5,19.8,13.5l8.2,21.1c-14.4,3.3-28.1,9.3-40.3,17.8
			c-6.7,4.7-12.7,10.4-17.8,16.8c-15.9-6.9-27.2-21.6-29.8-38.8c26.5-3.9,46.9-26.5,46.9-53.5c0-4.2-3.5-7.6-7.7-7.6H62.8V499
			c0-4.2-3.5-7.6-7.7-7.6C24.7,491.3,0,515.6,0,545.5c0,27.4,20.9,50.1,47.8,53.7c2.5,22.8,17,42.1,37.2,51.7
			c-3.3,7-5.2,14.7-5.6,22.4c-22.2,9.9-48.8,1.7-61-19.6c-2.1-3.7-6.8-5-10.5-2.9c-3.6,1.9-5,6.5-3.1,10.1c0,0.1,0.1,0.2,0.1,0.3
			c15.3,26.3,47.2,38,75.9,28c0.9,4.5,2.2,9,4,13.3c-10.5,0.3-20.8,3.5-29.7,9.2c-12.7,8.1-21.6,20.9-24.7,35.6
			c-0.8,4.1,1.8,8.1,5.9,9l0,0c0.5,0.1,1.1,0.2,1.6,0.1c3.6,0,6.8-2.5,7.6-6.1C50.1,729,70.7,715,92.4,718c2.7,4.6,5.7,9,9,13.2
			c-19,2.8-35.4,17-39.6,36.7c-0.8,4.1,1.8,8.1,5.9,9l0,0c0.5,0.1,1.1,0.2,1.6,0.1c3.6,0,6.8-2.5,7.6-6.1
			c3.6-17,20.6-27.9,37.9-24.4c0.4,0.1,0.8,0.1,1.2,0.1c19.9,18,43.7,27.9,67.8,27.9s47.9-9.8,67.8-27.9c0.4,0,0.8-0.1,1.2-0.1
			c17.3-3.5,34.3,7.4,37.9,24.4c0.8,3.6,3.9,6.1,7.6,6.1c0.5,0,1.1-0.1,1.6-0.1c4.1-0.8,6.8-4.7,6-8.8V768
			c-4.2-19.7-20.6-33.9-39.7-36.7c3.3-4.2,6.3-8.6,9-13.2c21.6-3,42.3,10.9,46.9,32.3c0.8,3.6,3.9,6.1,7.6,6.1
			c0.5,0,1.1-0.1,1.6-0.1c4.1-0.8,6.8-4.7,6-8.8v-0.1c-5.5-26-28.5-44-54.4-44.7c1.6-4.4,3-8.8,4-13.4c28.7,10,60.5-1.7,75.9-28
			C364.6,657.5,363.2,652.9,359.6,650.8z M271.4,553.4h40.9c4.4,0,8.1-3.5,8.1-8v-40.2c19.1,3.7,33.6,20.3,33.6,40.2
			c0,22.6-18.7,40.9-41.7,40.9C292.6,586.5,275.5,572.7,271.4,553.4z M218.6,557.3c0.6-1.5,1.8-2.7,3.2-3.3c1.5-0.7,3.2-0.7,4.7-0.2
			s2.8,1.7,3.5,3.2s0.7,3.1,0.2,4.6c-1.3,3.2-4.9,4.7-8.1,3.4c-1.4-0.6-2.6-1.7-3.3-3.1C218,560.5,218,558.8,218.6,557.3
			L218.6,557.3z M145.4,566.8c-3.2,1.2-6.8-0.3-8-3.5l0,0c-1.2-3.1,0.4-6.6,3.5-7.8h0.1c0.7-0.3,1.5-0.4,2.2-0.4
			c0.9,0,1.7,0.2,2.5,0.5c1.5,0.7,2.6,1.9,3.2,3.3C150.2,562.1,148.6,565.6,145.4,566.8C145.5,566.8,145.5,566.8,145.4,566.8
			L145.4,566.8z M13.5,545.5L13.5,545.5c0-19.8,14.4-36.5,33.6-40.2v40.2c0,4.4,3.7,8,8.1,8h40.9c-4.1,19.3-21.2,33.1-40.9,33
			C32.3,586.4,13.5,568,13.5,545.5z M249.6,732.6c-11,11.3-34.2,30.5-65.8,30.5l0,0c-31.6,0-54.8-19.1-65.8-30.5
			c-17-17.5-27.5-39.5-27.5-57.3c0-35.4,41.8-64.2,93.3-64.2s93.3,28.8,93.3,64.2C277,693.1,266.5,715.2,249.6,732.6z"/>
	</g>
</g>
	<g>
	<g>
		<g>
			<ellipse class="st2" cx="26.9" cy="144" rx="13.5" ry="12.9"/>
			<ellipse class="st2" cx="287.8" cy="57.2" rx="13.5" ry="12.6"/>
			<ellipse class="st2" cx="287.8" cy="230.8" rx="13.5" ry="13.2"/>
			<ellipse class="st2" cx="311.9" cy="144" rx="13.5" ry="12.9"/>
			<path class="st2" d="M23.8,131.4C30.4,60,93.2,4,169.6,4c31.8-0.1,62.9,9.9,88.7,28.6"/>
			<path class="st2" d="M23.8,156.6C30.4,228,93.2,284,169.6,284c31.8,0.1,62.9-9.9,88.7-28.6"/>
			<line class="st2" x1="182.6" y1="144" x2="298.4" y2="144"/>
			<path class="st2" d="M40.5,144c23-0.2,45.6-0.2,67.9,0"/>
			<polyline class="st2" points="274.3,230.8 250.3,230.8 250.3,57.2 274.3,57.2 			"/>
			<path class="st3" d="M187,89.8l-20.1,46.7c-0.5,1.2-0.8,2.4-0.8,3.7l-0.1,33.4c0,1.9-0.8,3.7-2.3,4.9L130,208.4
				c-1.4,1.3-3.6,1.2-4.9-0.2c-0.6-0.6-0.9-1.4-0.9-2.2l0.5-64.8c0-1.9-0.4-3.8-1.1-5.6l-19.4-45.8c0-4,18.5-7.2,41.4-7.2
				S187,85.8,187,89.8S168.5,97,145.6,97s-41.4-3.2-41.4-7.2"/>
		</g>
	</g>
</g>
	<g>
	<g>
		<path class="st4" d="M827.2,661.3c-15.7,75.8-89.8,124.5-165.6,108.9c-54.5-11.3-97.1-53.6-108.7-108 M827.1,604.2
			c-16-75.7-90.4-124.1-166.1-108c-54.5,11.5-96.9,54.2-108.2,108.7 M754.4,697.4c-35.5-35.5-35.6-93.1-0.1-128.6c0,0,0,0,0.1-0.1
			c-35.6,35.5-93.2,35.5-128.8,0c35.5,35.5,35.6,93.1,0.1,128.6c0,0,0,0-0.1,0.1C661.2,661.9,718.8,661.9,754.4,697.4L754.4,697.4z
			 M830.1,616.9c-8.9,0-16.1,7.2-16.1,16.2c0,8.9,7.2,16.1,16.2,16.1c8.9,0,16.1-7.2,16.1-16.1C846.2,624.2,839,616.9,830.1,616.9
			L830.1,616.9z M550.4,616.9c-8.9,0-16.1,7.2-16.1,16.2c0,8.9,7.2,16.1,16.2,16.1c8.9,0,16.1-7.2,16.1-16.1
			C566.5,624.2,559.3,616.9,550.4,616.9L550.4,616.9z M774.9,644.7l12.2-11.6l-12.2-11.6l12.2,11.6h-31.8 M609.9,644.7l12.2-11.6
			l-12.2-11.6l12.2,11.6h-31.8"/>
	</g>
</g>
</svg>
